<svg width="691" height="133" viewBox="0 0 691 133" fill="none" xmlns="http://www.w3.org/2000/svg">
<path d="M172.323 111H160.774V30H178.098V41.5884H183.912V53.1768H189.686V64.7256H195.46V76.314H201.274V87.8628H207.049V30H218.598V111H201.274V99.4512H195.46V87.8628H189.686V76.314H183.912V64.7256H178.098V53.1768H172.323V111ZM286.429 111H228.606V30H286.429V41.5884H240.154V61.8384H280.654V73.4268H240.154V99.4512H286.429V111ZM328.236 111H310.873V99.4512H305.098V76.314H299.324V53.1768H293.55V30H305.098V53.1768H310.873V76.314H316.687V93.6768H322.461V76.314H328.236V53.1768H334.05V30H351.373V53.1768H357.187V76.314H362.961V93.6768H368.736V76.314H374.55V53.1768H380.324V30H391.873V53.1768H386.098V76.314H380.324V99.4512H374.55V111H357.187V99.4512H351.373V76.314H345.598V53.1768H339.824V76.314H334.05V99.4512H328.236V111ZM472.441 111H420.392V30H431.941V99.4512H472.441V111ZM525.717 111H490.992V105.226H485.217V99.4512H479.443V93.6768H473.669V47.3628H479.443V41.5884H485.217V35.814H490.992V30H525.717V35.814H531.492V41.5884H537.306V47.3628H543.08V93.6768H537.306V99.4512H531.492V105.226H525.717V111ZM496.806 99.4512H519.943V93.6768H525.717V87.8628H531.492V53.1768H525.717V47.3628H519.943V41.5884H496.806V47.3628H490.992V53.1768H485.217V87.8628H490.992V93.6768H496.806V99.4512ZM564.597 111H553.049V30H605.097V35.814H610.872V41.5884H616.686V67.6128H610.872V73.4268H605.097V79.2012H610.872V84.9756H616.686V111H605.097V90.75H599.323V84.9756H593.549V79.2012H564.597V111ZM564.597 67.6128H599.323V61.8384H605.097V47.3628H599.323V41.5884H564.597V67.6128ZM684.398 111H626.575V30H684.398V41.5884H638.124V61.8384H678.624V73.4268H638.124V99.4512H684.398V111Z" fill="#FE5E35"/>
<path d="M72.5 85L48.5 85L48.5 109L27.5 109C25.8431 109 24.5 107.657 24.5 106L24.5 85L48.5 85L48.5 61L27.5 61C25.8431 61 24.5 62.3432 24.5 64L24.5 85L3.9006 85C2.49854 85 1.27558 84.0302 1.02048 82.6516C0.351515 79.0361 -4.64022e-06 75.3091 -5.3765e-06 71.5C-6.91225e-06 37.8106 27.3106 10.5 61 10.5C94.6894 10.5 122 37.8106 122 71.5C122 75.3091 121.648 79.036 120.979 82.6515C120.724 84.0302 119.501 85 118.099 85L96.5 85L96.5 106C96.5 107.657 95.1569 109 93.5 109L72.5 109L72.5 85ZM72.5 40C72.5 38.3432 71.1568 37 69.5 37L51.5 37C49.8431 37 48.5 38.3432 48.5 40L48.5 61L72.5 61L72.5 40ZM96.5 64C96.5 62.3431 95.1568 61 93.5 61L72.5 61L72.5 85L96.5 85L96.5 64ZM48.5 109L72.5 109L72.5 130C72.5 131.657 71.1569 133 69.5 133L51.5 133C49.8431 133 48.5 131.657 48.5 130L48.5 109Z" fill="#FE5E35"/>
<path d="M122.441 9.47368C123.414 9.47368 123.985 8.96761 123.985 8.13765V8.01619C123.985 7.14575 123.414 6.57895 122.441 6.57895H119.671V9.47368H122.441ZM121.511 20C115.272 20 111 15.9312 111 10C111 4.08907 115.251 0 121.511 0C127.749 0 132 4.08907 132 10C132 15.9312 127.749 20 121.511 20ZM121.511 18.0769C126.586 18.0769 129.885 14.8785 129.885 10C129.885 5.10121 126.586 1.92308 121.511 1.92308C116.456 1.92308 113.136 5.10121 113.136 10C113.136 14.8785 116.414 18.0769 121.511 18.0769ZM117.323 15.3644V4.67611H122.991C124.979 4.67611 126.332 5.93117 126.332 7.67206V7.83401C126.332 9.08907 125.613 10.0405 124.323 10.3846C124.937 10.587 125.381 11.1538 125.55 12.004L125.846 13.3401C126.121 14.6356 126.353 15.081 126.628 15.2429V15.3644H124.133C123.9 14.9595 123.71 14.413 123.562 13.5223L123.393 12.5506C123.245 11.6599 122.801 11.2955 121.934 11.2955H119.671V15.3644H117.323Z" fill="#FE5E35"/>
</svg>
